<?xml version="1.0" encoding="utf-8"?>
<!-- Generator: Adobe Illustrator 25.2.1, SVG Export Plug-In . SVG Version: 6.00 Build 0)  -->
<svg version="1.1" id="Calque_1" xmlns="http://www.w3.org/2000/svg" xmlns:xlink="http://www.w3.org/1999/xlink" x="0px" y="0px"
	 width="270px" height="100px" viewBox="0 0 270 100" style="enable-background:new 0 0 270 100;" xml:space="preserve">
<style type="text/css">
	.st0{fill:#E49AB4;}
	.st1{fill:none;stroke:#E49AB4;stroke-miterlimit:10;}
</style>
<g>
	<g>
		<path class="st0" d="M116.3,61.1c6.4,14.5-1.6,24.6-18.3,28.1c-11.6,2.4-20.9,1.2-26.1-1.4l1.4-7.9c4.8,2.1,11,3.7,21.5,1.5
			c9.9-2.1,17.3-7.9,12.7-18.2c-3.9-8.8-11.3-12-22.3-9.7c-5.2,1.1-8.3,2.7-11,4.5l-7.4-4.5L83.2,26L49,33.2l-3.8-8.6l46.5-9.9
			l3.5,8L80.6,47.1c1.4-0.5,2.7-1,3.8-1.3C99.1,42.8,110.5,48.1,116.3,61.1z"/>
		<path class="st0" d="M123.6,56.8c-7.8-17.5-1.3-33.4,19.2-37.7c21.5-4.5,38,4.4,46.4,23.5C197,60.2,190.9,76,170,80.4
			C148.8,84.9,132,75.8,123.6,56.8z M178.8,45c-5.8-13-17.5-20.1-32-17c-14.3,3-18.1,13.5-12.4,26.5c5.8,13,17,20,31.5,16.9
			C180.1,68.3,184.5,57.9,178.8,45z"/>
		<path class="st0" d="M200.3,54.1l0.5-1.8c1.7,0.7,3.2,0.8,5,0.4c2.1-0.5,2.9-1.3,2.3-2.6c-0.5-1.2-1.7-1.5-4.6-1.4
			c-3.7,0.2-5.4-0.7-6.3-2.8c-1-2.3,0.4-4.3,3.6-5c2.1-0.4,4.1-0.3,5.7,0.3l-0.5,1.8c-1.5-0.6-2.9-0.6-4.4-0.3
			c-1.9,0.4-2.6,1.3-2.2,2.4c0.5,1.1,1.5,1.3,4.6,1.2c3.4-0.2,5.3,0.7,6.3,2.9c1.1,2.5-0.4,4.4-3.8,5.2
			C204.2,55.1,202,54.9,200.3,54.1z"/>
		<path class="st0" d="M223.5,44l-9.9,2.1c1.6,3.2,4.1,3.9,6.6,3.4c2.1-0.5,2.8-1.1,3.4-2.2l1.9,1.3c-0.6,1.2-2.1,2.4-4.8,2.9
			c-4.2,0.9-7.8-0.7-9.7-5.1c-1.8-4.1-0.5-7.5,3.6-8.4c3.6-0.8,6.7,0.8,8.4,4.7C223.3,43.4,223.4,43.7,223.5,44z M212.9,44.3
			l7.6-1.6c-1.2-2.4-3-3.2-5.1-2.8C213.2,40.4,212.3,41.9,212.9,44.3z"/>
		<path class="st0" d="M239.3,39.8c2.1,4.6,0.2,7.8-3.7,8.6c-1.7,0.3-3,0.2-4.3-0.2l2.6,5.9l-2.4,0.5l-8-18.1l2.2-0.5l1,1.8
			c0.3-1.5,1.5-2.7,3.9-3.2C234,34,237.6,35.9,239.3,39.8z M237.1,40.7c-1.4-3.3-3.8-4.4-6.3-3.9c-2,0.4-3.1,1.8-2.9,3.7l2.4,5.4
			c1.4,0.6,2.8,0.8,4.3,0.5C237.5,45.9,238.4,43.9,237.1,40.7z"/>
		<path class="st0" d="M254.4,43c-0.4,0.8-1.3,1.7-3.3,2.1c-3.2,0.7-5.3-0.4-6.5-3.3l-3.1-7l-3.1,0.7l-0.8-1.9l3.2-0.7l-1.3-3.7
			l2-0.4l1.6,3.6l5.2-1.1l0.8,1.9l-5.2,1.1l3,6.7c0.8,1.7,2,2.4,3.7,2c1.2-0.3,1.8-0.9,2-1.3L254.4,43z"/>
	</g>
	<g>
		<path class="st1" d="M114.8,66.4c6.4,14.4-1.6,24.5-18.3,28.1c-11.6,2.4-20.9,1.2-26.1-1.4l1.4-7.9c4.8,2.1,11,3.7,21.6,1.5
			c9.9-2.1,17.3-7.9,12.7-18.2c-3.9-8.8-11.3-12.1-22.3-9.7c-5.2,1.1-8.3,2.7-11,4.5l-7.4-4.5l16.5-27.5l-34.2,7.3L43.7,30l46.5-9.9
			l3.5,8L79.1,52.5c1.4-0.5,2.7-1,3.8-1.3C97.5,48.1,109,53.4,114.8,66.4z"/>
		<path class="st1" d="M122.1,62.2c-7.8-17.5-1.3-33.4,19.2-37.7c21.5-4.5,38,4.4,46.4,23.5c7.8,17.6,1.7,33.4-19.2,37.9
			C147.2,90.3,130.5,81.1,122.1,62.2z M177.3,50.4c-5.8-13-17.5-20.1-32-17c-14.3,3-18.1,13.5-12.4,26.5c5.8,13,17,20,31.5,16.9
			C178.6,73.7,183,63.3,177.3,50.4z"/>
	</g>
	<g>
		<path class="st0" d="M0.7,80.8c-0.3-0.8,0.1-1.5,0.8-1.7c0.8-0.2,1.7,0.2,2.1,1c0.3,0.8-0.1,1.4-0.9,1.6C1.9,82,1,81.5,0.7,80.8z
			 M6.1,97.9c1.6-0.4,2.1-1.3,1.4-2.8l-4.9-11l2-0.4l4.9,11c1.1,2.6,0.4,4.3-2.4,4.9L6.1,97.9z"/>
		<path class="st0" d="M19.8,86.6l-8.2,1.7c1.3,2.6,3.3,3.2,5.4,2.8c1.7-0.4,2.3-0.9,2.8-1.8l1.5,1.1c-0.5,1-1.8,1.9-3.9,2.4
			c-3.4,0.7-6.4-0.6-8-4.2c-1.5-3.4-0.4-6.2,3-6.9c2.9-0.6,5.5,0.6,6.9,3.9C19.6,86.1,19.8,86.3,19.8,86.6z M11.1,86.9l6.2-1.3
			c-1-2-2.5-2.6-4.2-2.3C11.4,83.6,10.6,84.8,11.1,86.9z"/>
		<path class="st0" d="M29.7,78.4L34.3,89l-1.8,0.4l-0.8-1.5c-0.5,1.1-1.4,2.2-3.2,2.6c-2.8,0.6-4.7-0.4-5.9-3.1l-3-6.9l2-0.4
			l2.9,6.6c0.8,1.7,2.1,2.5,3.9,2.1c1.5-0.3,2.3-1.2,2.7-2.1l-3.5-7.8L29.7,78.4z"/>
		<path class="st0" d="M45.9,86.5c-0.3-0.4-0.5-0.7-0.9-1.6c-0.2,1.2-1.2,2.3-3.1,2.7c-3.1,0.7-6-1.1-7.4-4.2
			c-1.6-3.5-0.3-6.3,3.2-7.1c1.3-0.3,2.4-0.2,3.5,0.2l-2.5-5.6l2-0.4l6.2,13.9c0.3,0.6,0.7,1.4,0.9,1.7L45.9,86.5z M44,82.9l-2-4.5
			c-1.1-0.5-2.3-0.7-3.7-0.4c-2.2,0.5-3,2.2-1.9,4.8c1.1,2.6,3.1,3.6,5.3,3.1C43.4,85.5,44.1,84.3,44,82.9z"/>
		<path class="st0" d="M44.5,71.5c-0.3-0.8,0.1-1.5,0.8-1.7c0.8-0.2,1.7,0.2,2.1,1c0.3,0.8-0.1,1.4-0.9,1.6
			C45.7,72.7,44.8,72.3,44.5,71.5z M46.4,74.8l2-0.4L53.1,85l-2,0.4L46.4,74.8z"/>
	</g>
</g>
</svg>
