<?xml version="1.0" encoding="utf-8"?>
<!-- Generator: Adobe Illustrator 25.2.0, SVG Export Plug-In . SVG Version: 6.00 Build 0)  -->
<svg version="1.1" id="Calque_1" xmlns="http://www.w3.org/2000/svg" xmlns:xlink="http://www.w3.org/1999/xlink" x="0px" y="0px"
	 viewBox="0 0 270 100" style="enable-background:new 0 0 270 100;" xml:space="preserve">
<style type="text/css">
	.st0{fill:#0098D8;}
	.st1{fill:#F095B5;}
	.st2{fill:#FFFFFF;}
	.st3{fill:#7FC295;}
	.st4{fill:#E4C300;}
	.st5{fill:#F2A5C8;}
	.st6{fill:#0076BB;}
	.st7{fill:#E8C838;}
	.st8{fill:none;stroke:#7FC295;stroke-miterlimit:10;}
	.st9{fill:#E49AB4;}
	.st10{fill:none;stroke:#E49AB4;stroke-miterlimit:10;}
	.st11{fill:#DFC33A;}
	.st12{fill:none;stroke:#DFC33A;stroke-miterlimit:10;}
</style>
<g>
	<g>
		<path class="st9" d="M123.3,53.75c6.4,14.45-1.63,24.55-18.33,28.09c-11.55,2.45-20.87,1.17-26.14-1.41l1.37-7.91
			c4.82,2.12,11.03,3.72,21.55,1.49c9.95-2.11,17.26-7.92,12.72-18.16c-3.9-8.81-11.34-12.05-22.32-9.73
			c-5.15,1.09-8.33,2.66-11.03,4.46l-7.37-4.49l16.48-27.47l-34.19,7.25l-3.81-8.61L98.76,7.4l3.54,7.99L87.6,39.8
			c1.4-0.52,2.68-1.01,3.82-1.26C106.05,35.44,117.53,40.74,123.3,53.75z"/>
		<path class="st9" d="M130.64,49.5c-7.76-17.52-1.28-33.39,19.17-37.73c21.48-4.55,37.98,4.43,46.41,23.45
			c7.81,17.64,1.72,33.43-19.25,37.87C155.75,77.6,139.01,68.41,130.64,49.5z M185.77,37.7c-5.77-13.03-17.5-20.13-32.03-17.04
			c-14.28,3.03-18.07,13.54-12.35,26.45c5.77,13.02,17.01,19.97,31.54,16.89C187.08,60.99,191.49,50.6,185.77,37.7z"/>
		<path class="st9" d="M207.3,46.8l0.52-1.85c1.72,0.66,3.16,0.75,5.02,0.36c2.12-0.45,2.88-1.32,2.33-2.57
			c-0.53-1.2-1.72-1.52-4.58-1.37c-3.71,0.16-5.4-0.71-6.31-2.76c-1.03-2.32,0.37-4.26,3.59-4.95c2.06-0.44,4.1-0.3,5.68,0.33
			l-0.49,1.84c-1.52-0.56-2.85-0.62-4.42-0.29c-1.89,0.4-2.65,1.27-2.16,2.37c0.5,1.12,1.48,1.34,4.62,1.24
			c3.4-0.15,5.29,0.67,6.28,2.91c1.12,2.53-0.38,4.44-3.81,5.17C211.15,47.74,209.02,47.6,207.3,46.8z"/>
		<path class="st9" d="M230.51,36.69l-9.91,2.1c1.59,3.17,4.05,3.9,6.55,3.37c2.09-0.45,2.8-1.14,3.43-2.15l1.88,1.31
			c-0.62,1.18-2.13,2.36-4.78,2.92c-4.16,0.88-7.76-0.72-9.71-5.12c-1.82-4.11-0.49-7.5,3.63-8.37c3.55-0.75,6.66,0.75,8.4,4.69
			C230.28,36.02,230.42,36.34,230.51,36.69z M219.9,37l7.56-1.6c-1.24-2.44-3.01-3.21-5.1-2.77C220.24,33.09,219.26,34.54,219.9,37z
			"/>
		<path class="st9" d="M246.31,32.46c2.05,4.63,0.21,7.79-3.72,8.62c-1.66,0.35-3.04,0.25-4.3-0.17l2.61,5.88l-2.41,0.51l-8-18.07
			l2.18-0.46l0.98,1.84c0.29-1.48,1.46-2.73,3.85-3.23C241.03,26.63,244.57,28.52,246.31,32.46z M244.06,33.39
			c-1.44-3.26-3.83-4.4-6.27-3.88c-1.98,0.42-3.15,1.78-2.89,3.74l2.4,5.42c1.36,0.63,2.81,0.83,4.3,0.51
			C244.51,38.57,245.41,36.52,244.06,33.39z"/>
		<path class="st9" d="M261.38,35.67c-0.4,0.82-1.32,1.68-3.3,2.1c-3.23,0.68-5.26-0.4-6.53-3.26l-3.09-6.98l-3.11,0.66l-0.84-1.9
			l3.17-0.67l-1.27-3.72l1.98-0.42l1.6,3.62l5.17-1.1l0.85,1.92l-5.17,1.1l2.98,6.72c0.76,1.72,2.03,2.36,3.69,2.01
			c1.25-0.27,1.78-0.86,2.01-1.34L261.38,35.67z"/>
	</g>
	<g>
		<path class="st10" d="M121.77,59.1c6.4,14.45-1.63,24.55-18.33,28.09c-11.55,2.45-20.87,1.17-26.14-1.41l1.37-7.91
			c4.82,2.12,11.03,3.72,21.55,1.49c9.95-2.11,17.26-7.92,12.72-18.16c-3.9-8.81-11.34-12.06-22.32-9.73
			c-5.15,1.09-8.33,2.66-11.03,4.47l-7.37-4.49L88.7,23.97l-34.19,7.25l-3.81-8.61l46.54-9.87l3.54,7.99L86.07,45.15
			c1.4-0.52,2.68-1.01,3.82-1.26C104.53,40.79,116.01,46.09,121.77,59.1z"/>
		<path class="st10" d="M129.12,54.85c-7.76-17.52-1.28-33.39,19.17-37.73c21.48-4.55,37.99,4.43,46.41,23.45
			c7.81,17.64,1.72,33.43-19.25,37.87C154.22,82.95,137.49,73.76,129.12,54.85z M184.25,43.05c-5.77-13.03-17.5-20.13-32.03-17.04
			c-14.28,3.03-18.06,13.54-12.35,26.45c5.77,13.02,17.01,19.97,31.54,16.89C185.56,66.34,189.97,55.95,184.25,43.05z"/>
	</g>
	<g>
		<path class="st9" d="M7.66,73.45c-0.35-0.8,0.07-1.49,0.84-1.66c0.81-0.17,1.71,0.25,2.06,1.04c0.33,0.75-0.07,1.44-0.88,1.62
			C8.91,74.61,7.99,74.2,7.66,73.45z M13.08,90.54c1.61-0.39,2.08-1.26,1.4-2.81L9.62,76.76l1.99-0.42l4.87,10.99
			c1.14,2.58,0.39,4.26-2.4,4.87L13.08,90.54z"/>
		<path class="st9" d="M26.83,79.26L18.67,81c1.31,2.61,3.33,3.21,5.39,2.78c1.72-0.37,2.31-0.94,2.83-1.78l1.55,1.08
			c-0.51,0.98-1.76,1.94-3.94,2.41c-3.42,0.72-6.39-0.6-8-4.22c-1.5-3.39-0.41-6.18,2.99-6.9c2.92-0.62,5.49,0.62,6.92,3.86
			C26.64,78.72,26.76,78.98,26.83,79.26z M18.1,79.52l6.22-1.32c-1.02-2.01-2.48-2.64-4.2-2.28C18.37,76.29,17.57,77.5,18.1,79.52z"
			/>
		<path class="st9" d="M36.65,71.03l4.69,10.6l-1.75,0.37l-0.78-1.46c-0.46,1.08-1.36,2.19-3.25,2.59
			c-2.75,0.59-4.72-0.43-5.91-3.11l-3.04-6.87l1.99-0.42l2.9,6.55c0.77,1.74,2.07,2.5,3.92,2.1c1.48-0.31,2.28-1.19,2.72-2.08
			l-3.48-7.85L36.65,71.03z"/>
		<path class="st9" d="M52.93,79.18c-0.27-0.37-0.51-0.67-0.93-1.56c-0.23,1.25-1.16,2.29-3.1,2.7c-3.09,0.65-5.99-1.05-7.4-4.23
			c-1.57-3.54-0.29-6.33,3.16-7.06c1.29-0.27,2.44-0.17,3.51,0.19l-2.49-5.62l1.99-0.42l6.17,13.92c0.27,0.6,0.69,1.38,0.93,1.68
			L52.93,79.18z M50.96,75.51l-1.99-4.48c-1.13-0.53-2.27-0.69-3.68-0.39c-2.18,0.46-2.99,2.23-1.86,4.78
			c1.14,2.57,3.11,3.59,5.29,3.13C50.35,78.2,51.14,76.98,50.96,75.51z"/>
		<path class="st9" d="M51.46,64.16c-0.35-0.8,0.07-1.49,0.84-1.66c0.81-0.17,1.71,0.25,2.06,1.04c0.33,0.75-0.07,1.44-0.88,1.62
			C52.71,65.33,51.79,64.91,51.46,64.16z M53.43,67.48l1.99-0.42l4.7,10.6l-1.99,0.42L53.43,67.48z"/>
	</g>
</g>
</svg>
