<?xml version="1.0" encoding="utf-8"?>
<!-- Generator: Adobe Illustrator 25.2.1, SVG Export Plug-In . SVG Version: 6.00 Build 0)  -->
<svg version="1.1" id="Calque_1" xmlns="http://www.w3.org/2000/svg" xmlns:xlink="http://www.w3.org/1999/xlink" x="0px" y="0px"
	 width="270px" height="100px" viewBox="0 0 270 100" style="enable-background:new 0 0 270 100;" xml:space="preserve">
<style type="text/css">
	.st0{fill:#DFC33A;}
	.st1{fill:none;stroke:#DFC33A;stroke-miterlimit:10;}
</style>
<g>
	<g>
		<path class="st0" d="M105.6,61.5c-7.9-17.9-1.3-34.2,19.6-38.6c22-4.7,38.9,4.5,47.5,24c8,18,1.8,34.2-19.7,38.8
			C131.3,90.2,114.2,80.8,105.6,61.5z M162,49.4c-5.9-13.3-17.9-20.6-32.8-17.4c-14.6,3.1-18.5,13.9-12.6,27.1
			c5.9,13.3,17.4,20.4,32.3,17.3C163.4,73.2,167.9,62.6,162,49.4z"/>
		<path class="st0" d="M199.3,28.9l23.6,53.2l-9.7,2.1L194,40.9l-9.4,8.6l-7.3-6.6l13.9-12.4L199.3,28.9z"/>
		<path class="st0" d="M213.9,38.3c-1.9-4.2-0.3-7.7,4-8.6c4.1-0.9,8.2,1,10,5.3c1.9,4.2,0.4,7.7-4.1,8.6
			C219.7,44.4,215.8,42.6,213.9,38.3z M225.5,35.7c-1.4-3.1-3.9-4.6-6.9-4c-2.7,0.6-3.7,2.7-2.3,5.9c1.4,3.1,4,4.6,6.8,4
			C225.9,41,226.9,38.9,225.5,35.7z"/>
		<path class="st0" d="M229.9,34.8c-1.9-4.3-0.1-7.7,4-8.5c2.1-0.4,3.9-0.2,5.5,0.5l-0.5,1.9c-1.3-0.6-2.4-0.8-4.1-0.4
			c-2.8,0.6-3.7,2.8-2.4,5.9c1.4,3.2,4,4.5,7,3.9c1.6-0.3,2.5-1,3-2l1.9,1.3c-0.5,1-1.7,2.2-4.4,2.8C235.7,41,231.9,39.3,229.9,34.8
			z"/>
		<path class="st0" d="M256.9,35.1c-0.4,0.9-1.4,1.7-3.4,2.2c-3.3,0.7-5.4-0.4-6.7-3.3l-3.2-7.1l-3.2,0.7l-0.9-1.9l3.2-0.7l-1.3-3.8
			l2-0.4l1.6,3.7l5.3-1.1l0.9,2l-5.3,1.1l3,6.9c0.8,1.8,2.1,2.4,3.8,2.1c1.3-0.3,1.8-0.9,2.1-1.4L256.9,35.1z"/>
	</g>
	<g>
		<path class="st1" d="M104.3,66.7c-7.9-17.9-1.3-34.2,19.6-38.6c22-4.7,38.9,4.5,47.5,24c8,18,1.8,34.2-19.7,38.8
			C130,95.5,112.9,86,104.3,66.7z M160.8,54.6C154.8,41.3,142.8,34,128,37.2c-14.6,3.1-18.5,13.9-12.6,27.1
			c5.9,13.3,17.4,20.4,32.3,17.3C162.1,78.5,166.6,67.8,160.8,54.6z"/>
		<path class="st1" d="M198,34.1l23.6,53.2l-9.7,2.1l-19.1-43.2l-9.4,8.6l-7.3-6.6l13.9-12.4L198,34.1z"/>
	</g>
	<g>
		<path class="st0" d="M12.6,87.1L12.4,99l-1.7,0.4l-9.6-9.8L3.3,89l5.5,5.8l2,2.2l-0.1-2.6l-0.1-7L12.6,87.1z"/>
		<path class="st0" d="M26.2,90.5l-8.4,1.8c1.3,2.7,3.4,3.3,5.5,2.8c1.8-0.4,2.4-1,2.9-1.8l1.6,1.1c-0.5,1-1.8,2-4,2.5
			c-3.5,0.7-6.5-0.6-8.2-4.3c-1.5-3.5-0.4-6.3,3.1-7.1c3-0.6,5.6,0.6,7.1,3.9C26,89.9,26.1,90.2,26.2,90.5z M17.2,90.8l6.4-1.3
			c-1-2.1-2.5-2.7-4.3-2.3C17.5,87.4,16.7,88.7,17.2,90.8z"/>
		<path class="st0" d="M38.3,86l3,6.8l-2,0.4l-2.8-6.4c-0.9-2.1-2.2-2.8-4.1-2.4c-1.6,0.3-2.5,1.3-2.9,2.3l3.5,7.9l-2,0.4l-4.8-10.8
			l1.8-0.4l0.8,1.4c0.5-1.1,1.5-2.2,3.5-2.6C34.7,82.1,37,83,38.3,86z"/>
		<path class="st0" d="M53,90.4c-0.3-0.4-0.5-0.7-1-1.6c-0.2,1.3-1.2,2.3-3.2,2.8c-3.2,0.7-6.1-1.1-7.6-4.3
			c-1.6-3.6-0.3-6.5,3.2-7.2c1.3-0.3,2.5-0.2,3.6,0.2l-2.5-5.8l2-0.4L54,88.2c0.3,0.6,0.7,1.4,1,1.7L53,90.4z M51,86.6L49,82
			c-1.2-0.6-2.3-0.7-3.8-0.4c-2.2,0.5-3.1,2.3-1.9,4.9c1.2,2.6,3.2,3.7,5.4,3.2C50.4,89.4,51.2,88.1,51,86.6z"/>
		<path class="st0" d="M60.3,76.8l0.5,1.9c-0.5,0-0.8,0-1.4,0.1c-1.5,0.3-2.1,1.3-2.4,2.5l3.3,7.5l-2,0.4l-4.8-10.8l1.8-0.4l0.9,1.6
			c0.3-1.2,1.1-2.4,2.7-2.7C59.4,76.8,59.8,76.8,60.3,76.8z"/>
		<path class="st0" d="M73.6,80.4l-8.3,1.8c1.3,2.7,3.4,3.3,5.5,2.8c1.8-0.4,2.4-0.9,2.9-1.8l1.6,1.1c-0.5,1-1.8,2-4,2.5
			c-3.5,0.7-6.5-0.6-8.2-4.3c-1.5-3.5-0.4-6.3,3.1-7.1c3-0.6,5.6,0.6,7.1,3.9C73.4,79.9,73.5,80.1,73.6,80.4z M64.7,80.7l6.4-1.3
			c-1.1-2.1-2.5-2.7-4.3-2.3C64.9,77.4,64.1,78.6,64.7,80.7z"/>
		<path class="st0" d="M86.9,83.2c-0.3-0.4-0.5-0.7-0.9-1.6c-0.2,1.3-1.2,2.3-3.2,2.8c-3.2,0.7-6.1-1.1-7.6-4.3
			c-1.6-3.6-0.3-6.5,3.2-7.2c1.3-0.3,2.5-0.2,3.6,0.2l-2.6-5.8l2-0.4l6.3,14.3c0.3,0.6,0.7,1.4,0.9,1.7L86.9,83.2z M84.9,79.4
			l-2-4.6c-1.2-0.6-2.3-0.7-3.8-0.4c-2.2,0.5-3.1,2.3-1.9,4.9c1.2,2.6,3.2,3.7,5.4,3.2C84.2,82.2,85.1,80.9,84.9,79.4z"/>
		<path class="st0" d="M85.4,67.8c-0.4-0.8,0.1-1.5,0.9-1.7c0.8-0.2,1.8,0.2,2.1,1.1c0.3,0.8-0.1,1.5-0.9,1.7
			C86.7,69,85.7,68.6,85.4,67.8z M87.4,71.2l2-0.4l4.8,10.8l-2,0.4L87.4,71.2z"/>
	</g>
</g>
</svg>
