<?xml version="1.0" encoding="utf-8"?>
<!-- Generator: Adobe Illustrator 25.2.0, SVG Export Plug-In . SVG Version: 6.00 Build 0)  -->
<svg version="1.1" id="Calque_1" xmlns="http://www.w3.org/2000/svg" xmlns:xlink="http://www.w3.org/1999/xlink" x="0px" y="0px"
	 viewBox="0 0 270 100" style="enable-background:new 0 0 270 100;" xml:space="preserve">
<style type="text/css">
	.st0{fill:#0098D8;}
	.st1{fill:#F095B5;}
	.st2{fill:#FFFFFF;}
	.st3{fill:#7FC295;}
	.st4{fill:#E4C300;}
	.st5{fill:#F2A5C8;}
	.st6{fill:#0076BB;}
	.st7{fill:#E8C838;}
	.st8{fill:none;stroke:#7FC295;stroke-miterlimit:10;}
	.st9{fill:#E49AB4;}
	.st10{fill:none;stroke:#E49AB4;stroke-miterlimit:10;}
	.st11{fill:#DFC33A;}
	.st12{fill:none;stroke:#DFC33A;stroke-miterlimit:10;}
</style>
<g>
	<g>
		<path class="st11" d="M111.6,51.54c-7.94-17.93-1.31-34.18,19.62-38.62c21.99-4.66,38.88,4.54,47.5,24.01
			c8,18.05,1.76,34.21-19.7,38.76C137.3,80.3,120.18,70.89,111.6,51.54z M168.04,39.45c-5.91-13.34-17.91-20.6-32.79-17.44
			c-14.61,3.1-18.49,13.86-12.64,27.07c5.91,13.33,17.41,20.44,32.29,17.29C169.38,63.3,173.89,52.66,168.04,39.45z"/>
		<path class="st11" d="M205.31,18.95l23.55,53.17l-9.72,2.06l-19.14-43.21l-9.36,8.64l-7.28-6.6l13.87-12.35L205.31,18.95z"/>
		<path class="st11" d="M219.86,28.37c-1.86-4.21-0.32-7.71,3.99-8.63c4.14-0.88,8.16,1.01,10.04,5.25
			c1.88,4.24,0.35,7.68-4.06,8.62C225.7,34.48,221.76,32.63,219.86,28.37z M231.47,25.76c-1.38-3.12-3.94-4.64-6.86-4.03
			c-2.74,0.58-3.7,2.74-2.32,5.85c1.38,3.12,3.99,4.61,6.82,4.01C231.9,31.01,232.87,28.94,231.47,25.76z"/>
		<path class="st11" d="M235.93,24.88c-1.88-4.33-0.08-7.68,3.99-8.54c2.14-0.45,3.94-0.22,5.52,0.49l-0.53,1.89
			c-1.32-0.56-2.42-0.77-4.12-0.41c-2.83,0.6-3.71,2.8-2.42,5.85c1.4,3.23,3.97,4.55,7,3.91c1.61-0.34,2.49-1.05,3.03-1.98
			l1.93,1.34c-0.54,0.99-1.67,2.19-4.43,2.78C241.73,31.08,237.92,29.38,235.93,24.88z"/>
		<path class="st11" d="M262.92,25.13c-0.41,0.85-1.35,1.72-3.38,2.15c-3.3,0.7-5.39-0.41-6.69-3.34l-3.16-7.14l-3.18,0.67
			l-0.86-1.95l3.24-0.69l-1.3-3.81l2.02-0.43l1.64,3.71l5.3-1.12l0.87,1.97l-5.3,1.12l3.04,6.88c0.78,1.76,2.08,2.42,3.78,2.06
			c1.28-0.27,1.82-0.88,2.06-1.37L262.92,25.13z"/>
	</g>
	<g>
		<path class="st12" d="M110.31,56.75c-7.94-17.93-1.31-34.18,19.62-38.62c21.99-4.66,38.88,4.54,47.5,24.01
			c8,18.05,1.76,34.21-19.7,38.76C136.01,85.51,118.89,76.1,110.31,56.75z M166.75,44.67c-5.91-13.34-17.91-20.6-32.79-17.44
			c-14.61,3.1-18.49,13.86-12.64,27.07c5.91,13.33,17.41,20.44,32.29,17.29C168.09,68.51,172.6,57.88,166.75,44.67z"/>
		<path class="st12" d="M204.02,24.16l23.55,53.17l-9.71,2.06l-19.14-43.21l-9.36,8.64l-7.28-6.6l13.87-12.35L204.02,24.16z"/>
	</g>
	<g>
		<path class="st11" d="M18.64,77.12l-0.19,11.91l-1.74,0.37l-9.63-9.83l2.23-0.47l5.5,5.83l1.96,2.18l-0.14-2.57l-0.09-6.97
			L18.64,77.12z"/>
		<path class="st11" d="M32.17,80.55l-8.35,1.77c1.34,2.67,3.41,3.29,5.52,2.84c1.76-0.38,2.36-0.96,2.89-1.82l1.59,1.11
			c-0.52,1-1.8,1.99-4.03,2.46c-3.5,0.74-6.54-0.61-8.19-4.32c-1.54-3.47-0.42-6.33,3.06-7.06c2.99-0.63,5.62,0.63,7.08,3.95
			C31.98,79.99,32.09,80.25,32.17,80.55z M23.23,80.81l6.37-1.35c-1.05-2.06-2.54-2.7-4.3-2.33C23.51,77.5,22.69,78.74,23.23,80.81z
			"/>
		<path class="st11" d="M44.34,76.07l3.02,6.83l-2.03,0.43l-2.85-6.43c-0.92-2.09-2.25-2.79-4.07-2.41
			c-1.64,0.35-2.46,1.34-2.94,2.26l3.51,7.93l-2.03,0.43l-4.81-10.85l1.84-0.39l0.75,1.4c0.54-1.08,1.52-2.19,3.53-2.62
			C40.69,72.13,43,73.04,44.34,76.07z"/>
		<path class="st11" d="M59.05,80.42c-0.27-0.37-0.52-0.68-0.95-1.6c-0.24,1.28-1.19,2.34-3.17,2.76c-3.16,0.67-6.13-1.08-7.57-4.33
			c-1.61-3.63-0.29-6.47,3.23-7.22c1.32-0.28,2.5-0.17,3.6,0.2l-2.55-5.75l2.03-0.43l6.31,14.25c0.27,0.61,0.71,1.41,0.95,1.72
			L59.05,80.42z M57.04,76.67l-2.03-4.59c-1.16-0.55-2.32-0.71-3.77-0.4c-2.23,0.47-3.07,2.28-1.91,4.9
			c1.17,2.63,3.18,3.67,5.41,3.2C56.41,79.42,57.22,78.17,57.04,76.67z"/>
		<path class="st11" d="M66.31,66.87l0.46,1.89c-0.49-0.02-0.85,0.01-1.37,0.12c-1.47,0.31-2.14,1.34-2.41,2.48l3.33,7.51
			l-2.03,0.43l-4.81-10.85l1.84-0.39l0.89,1.64c0.34-1.23,1.09-2.37,2.69-2.71C65.41,66.89,65.82,66.85,66.31,66.87z"/>
		<path class="st11" d="M79.6,70.49l-8.35,1.77c1.34,2.67,3.41,3.29,5.52,2.84c1.76-0.37,2.36-0.95,2.89-1.82l1.59,1.11
			c-0.52,1-1.8,1.99-4.03,2.46c-3.5,0.74-6.54-0.61-8.19-4.32c-1.54-3.47-0.42-6.33,3.06-7.06c2.99-0.63,5.62,0.63,7.08,3.95
			C79.41,69.93,79.53,70.2,79.6,70.49z M70.66,70.75l6.37-1.35c-1.05-2.06-2.54-2.7-4.3-2.33C70.94,67.45,70.12,68.68,70.66,70.75z"
			/>
		<path class="st11" d="M92.89,73.25c-0.27-0.37-0.52-0.69-0.95-1.6c-0.24,1.28-1.19,2.34-3.17,2.76c-3.16,0.67-6.13-1.08-7.57-4.33
			c-1.61-3.63-0.3-6.47,3.23-7.22c1.32-0.28,2.5-0.17,3.6,0.2l-2.55-5.75l2.03-0.43l6.31,14.26c0.27,0.61,0.71,1.41,0.95,1.72
			L92.89,73.25z M90.88,69.5l-2.03-4.59c-1.15-0.55-2.32-0.71-3.77-0.4c-2.23,0.47-3.06,2.28-1.9,4.9c1.17,2.63,3.18,3.67,5.41,3.2
			C90.24,72.25,91.06,71,90.88,69.5z"/>
		<path class="st11" d="M91.38,57.88c-0.36-0.82,0.07-1.53,0.86-1.7c0.83-0.18,1.75,0.25,2.11,1.07c0.34,0.77-0.07,1.48-0.9,1.65
			C92.66,59.07,91.72,58.65,91.38,57.88z M93.4,61.28l2.03-0.43l4.81,10.85l-2.03,0.43L93.4,61.28z"/>
	</g>
</g>
</svg>
