<?xml version="1.0" encoding="utf-8"?>
<!-- Generator: Adobe Illustrator 25.2.1, SVG Export Plug-In . SVG Version: 6.00 Build 0)  -->
<svg version="1.1" id="Calque_1" xmlns="http://www.w3.org/2000/svg" xmlns:xlink="http://www.w3.org/1999/xlink" x="0px" y="0px"
	 width="338.6px" height="174px" viewBox="0 0 338.6 174" style="enable-background:new 0 0 338.6 174;" xml:space="preserve">
<style type="text/css">
	.st0{fill:#F095B5;}
	.st1{fill:#FFFFFF;}
	.st2{fill:#E4C302;}
	.st3{fill:#80C294;}
</style>
<g>
	<path class="st0" d="M336.7,111.1L41.7,173.8c-3.4,0.7-7.2-1.1-8.4-4.1L2.6,95.8c-1.2-3,5.4-17.4,8.8-18.1l290.2-51.3
		c3.4-0.7,4.6,1.1,5.9,4.1L336.9,99C338.2,102,340.1,110.4,336.7,111.1"/>
	<path class="st1" d="M332.6,103.8L43.2,165.3c-3.4,0.7-7.2-1.1-8.4-4.1L3.6,86.3c-1.2-3,0.5-6,3.9-6.7L297,18.1
		c3.4-0.7,7.2,1.1,8.4,4.1l31.1,74.9C337.8,100.1,336,103.1,332.6,103.8"/>
	<path d="M41.7,166.7c-3.5,0-6.9-2-8.1-5.1L2.5,86.8c-0.7-1.7-0.7-3.6,0.2-5.1c0.9-1.7,2.6-2.9,4.7-3.4l289.5-61.5
		c4-0.8,8.4,1.3,9.9,4.9l31.1,74.9c0.7,1.7,0.7,3.6-0.2,5.1c-0.9,1.7-2.6,2.9-4.7,3.4v0L43.4,166.6
		C42.9,166.7,42.3,166.7,41.7,166.7 M298.5,19.2c-0.4,0-0.8,0-1.2,0.1L7.8,80.8c-1.3,0.3-2.4,1-2.9,2c-0.5,0.9-0.5,1.9-0.1,2.9
		l31.1,74.9c1,2.4,4.2,3.9,7,3.3l289.5-61.5c1.3-0.3,2.4-1,2.9-2c0.5-0.9,0.5-1.9,0.1-2.9l-31.1-74.9
		C303.4,20.7,301,19.2,298.5,19.2"/>
	<path d="M80.2,133.6c-0.7,0.7-2.2,1.3-4,1.7c-3.6,0.8-6.4-0.4-9.5-3l-3.8-3.3l-0.7,0.1c-1,0.2-2.1,0.4-3.1,0.5l3.3,7.9l-8.9,1.9
		L42.1,112l13.7-2.9c7.9-1.7,13.7,0.9,16.2,6.9c1.6,3.9,1.2,7-1.3,9.4l2.2,1.6c1.2,0.9,2.1,1,3,0.8c0.5-0.1,1-0.3,1.2-0.4
		L80.2,133.6z M56.5,123.2c1-0.1,2-0.3,2.9-0.5c3.5-0.7,4.9-2.1,4.1-4.3c-0.8-2-2.8-2.7-5.6-2.1l-3.9,0.8L56.5,123.2z"/>
	<path d="M105,125.9c-1.8,2.3-4.4,4.2-10.1,5.4c-7.2,1.5-13.5-0.8-16.4-7.7c-2.8-6.7,0-12.5,8.4-14.3c6.4-1.4,10.7,0.7,12.3,4.4
		c2,4.6-1.3,8-10.2,10.2c1.3,1.1,2.8,1,4.8,0.6c2.1-0.4,4.1-1.4,5.6-3L105,125.9z M86.5,119.6c3.3-0.8,5.5-1.7,4.8-3.3
		c-0.4-0.9-1.4-1.1-2.6-0.9C86.7,115.9,85.9,117.3,86.5,119.6"/>
	<path d="M129.8,112c3,7.2,0.1,12-5.5,13.2c-3,0.6-5.7,0.3-8.1-1.4l0.7,2.2l-7.8,1.7l-12.5-30l8.8-1.9l4.7,11.3
		c0.9-1.9,2.7-3.1,5.3-3.7C121.3,102.1,127,105.1,129.8,112 M115.3,110.6c-1.7,0.4-2.6,1.4-2.6,2.9l1.7,4.1c1,1.4,2.7,1.9,4.5,1.5
		c2.3-0.5,3.2-2.2,2.1-5C119.9,111.2,117.7,110.1,115.3,110.6"/>
	<path d="M132.3,111.7c-2.7-6.5,0.5-12.1,8.4-13.8c7.9-1.7,14.3,1.3,17.1,8.1c2.7,6.5-0.5,12.1-8.4,13.8
		C141.6,121.5,135.1,118.5,132.3,111.7 M149.1,108.1c-1.1-2.6-3.2-3.9-5.7-3.4c-2.6,0.6-3.4,2.4-2.3,5.1c1.1,2.7,3.2,3.9,5.8,3.4
		C149.4,112.6,150.2,110.8,149.1,108.1"/>
	<path d="M160,105.9c-2.7-6.5,0.5-12.1,8.4-13.8c7.9-1.7,14.3,1.3,17.1,8.1c2.7,6.5-0.5,12.1-8.4,13.7
		C169.3,115.6,162.8,112.6,160,105.9 M176.8,102.2c-1.1-2.6-3.2-3.9-5.7-3.4c-2.6,0.6-3.4,2.4-2.3,5.1c1.1,2.7,3.2,3.9,5.8,3.4
		C177.1,106.7,177.9,104.9,176.8,102.2"/>
	<path d="M211.3,103.8c-1.2,2.1-3.6,3.6-6.8,4.3c-5.6,1.2-10.2-0.1-12.5-5.7l-3-7.2l-3.8,0.8l-2.5-6.1c3.5-1.1,4.4-2.1,3-6.6
		l7.4-1.6l2.2,5.4l6.8-1.4l2.6,6.2l-6.8,1.4l2.3,5.6c0.6,1.5,1.9,1.8,3.4,1.5c1-0.2,1.6-0.7,2.1-1.3L211.3,103.8z"/>
	<path d="M214.7,100.7c-1.1-2.8,0.5-5.2,3.5-5.9c3-0.6,6.1,0.9,7.2,3.6c1.1,2.7-0.3,5.2-3.2,5.9C219.1,105,215.8,103.5,214.7,100.7
		 M209.1,84.9l-4.3-10.2l8.7-1.9l4.3,10.2l3.1,9.3l-7.4,1.6L209.1,84.9z"/>
	<path class="st0" d="M117.2,37.2c-0.9-1.1-1.1-2.8-0.3-4.1L130.3,12c1-1.6,3.2-2.1,4.8-1.1c1.6,1,2.1,3.2,1.1,4.8l-13.3,21.2
		c-1,1.6-3.2,2.1-4.8,1.1C117.7,37.8,117.5,37.5,117.2,37.2"/>
	<path class="st2" d="M100.9,22.9c-0.3-0.4-0.5-0.8-0.7-1.3L96.1,6.1c-0.5-1.9,0.6-3.8,2.5-4.3c1.9-0.5,3.8,0.6,4.3,2.5l4.1,15.4
		c0.5,1.9-0.6,3.8-2.5,4.3C103.1,24.4,101.7,23.9,100.9,22.9"/>
	<path class="st3" d="M70.6,27.2c-1-1.2-1.1-3-0.1-4.3c1.1-1.6,3.3-1.9,4.9-0.7L95.6,37c1.6,1.1,1.9,3.3,0.7,4.9
		c-1.1,1.6-3.3,1.9-4.9,0.7L71.3,27.8C71,27.6,70.8,27.4,70.6,27.2"/>
</g>
</svg>
