<?xml version="1.0" encoding="utf-8"?>
<!-- Generator: Adobe Illustrator 25.1.0, SVG Export Plug-In . SVG Version: 6.00 Build 0)  -->
<svg version="1.2" baseProfile="tiny" id="Calque_1"
	 xmlns="http://www.w3.org/2000/svg" xmlns:xlink="http://www.w3.org/1999/xlink" x="0px" y="0px" width="254.87px"
	 height="52.16px" viewBox="0 0 254.87 52.16" overflow="visible" xml:space="preserve">
<g>
	<g>
		<path fill="#FFFFFF" d="M39.97,50.75c-1.4,0.77-3.78,1.26-6.44,1.26c-5.39,0-8.61-2.66-11.27-7.84L18.9,37.8h-0.98
			c-1.54,0-3.08-0.07-4.62-0.21v13.44H0V4.41h20.51c11.76,0,18.34,5.95,18.34,16.1c0,6.58-2.38,11.41-7.14,14.21l2.1,3.22
			c1.19,1.75,2.31,2.24,3.57,2.24c0.7,0,1.54-0.14,1.89-0.35L39.97,50.75z M13.3,26.67c1.4,0.14,2.87,0.21,4.27,0.21
			c5.25,0,8.05-1.68,8.05-5.32c0.07-3.43-2.31-5.18-6.51-5.18H13.3V26.67z"/>
		<path fill="#FFFFFF" d="M78.33,47.04c-3.85,3.01-8.4,5.11-16.94,5.11c-10.85,0-18.06-5.67-18.06-17.36
			c0-11.41,7.14-19.6,19.74-19.6c9.52,0,14.28,4.69,14.42,10.92c0.21,7.77-6.3,12.11-19.81,12.6c1.19,2.1,3.22,2.52,6.16,2.52
			c3.15,0,6.37-0.77,9.38-2.94L78.33,47.04z M56.63,30.87c4.97-0.21,8.54-0.84,8.54-3.5c0-1.54-1.26-2.17-3.08-2.17
			C59.01,25.2,57.05,27.09,56.63,30.87z"/>
		<path fill="#FFFFFF" d="M120.26,33.39c0,12.18-6.72,18.76-15.12,18.76c-4.48,0-7.98-1.54-10.29-4.9l-0.28,3.78H82.95V0h13.09
			v19.18c2.31-2.66,5.46-3.99,9.31-3.99C114.24,15.19,120.26,21.7,120.26,33.39z M101.22,26.46c-2.52,0-4.34,1.33-5.18,3.64v7
			c0.63,2.59,2.73,3.78,5.39,3.78c3.36,0,5.6-2.38,5.67-7.21C107.17,28.84,104.65,26.46,101.22,26.46z"/>
		<path fill="#FFFFFF" d="M123.76,33.88c0-10.99,7.63-18.69,19.39-18.69c11.76,0,18.9,6.79,18.9,18.27
			c0,10.99-7.56,18.69-19.32,18.69C130.97,52.16,123.76,45.36,123.76,33.88z M148.89,33.67c0-4.48-2.24-7.21-5.95-7.21
			c-3.92,0-6.02,2.73-6.02,7.21c0,4.62,2.1,7.21,6.02,7.21C146.72,40.88,148.89,38.29,148.89,33.67z"/>
		<path fill="#FFFFFF" d="M165.13,33.88c0-10.99,7.63-18.69,19.39-18.69c11.76,0,18.9,6.79,18.9,18.27
			c0,10.99-7.56,18.69-19.32,18.69C172.34,52.16,165.13,45.36,165.13,33.88z M190.26,33.67c0-4.48-2.24-7.21-5.95-7.21
			c-3.92,0-6.02,2.73-6.02,7.21c0,4.62,2.1,7.21,6.02,7.21C188.09,40.88,190.26,38.29,190.26,33.67z"/>
		<path fill="#FFFFFF" d="M236.74,47.75c-2.8,2.94-7,4.41-11.69,4.41c-8.33,0-13.93-3.64-13.93-12.95V26.88h-5.67V16.59
			c5.39-0.49,7.21-1.89,7.77-9.31h10.99v9.1h10.15v10.5h-10.15v9.52c0,2.59,1.54,3.5,3.78,3.5c1.54,0,2.59-0.49,3.64-1.4
			L236.74,47.75z"/>
		<path fill="#FFFFFF" d="M238.98,44.03c0-4.69,3.64-8.05,8.05-8.05c4.41,0,7.84,3.36,7.84,8.05s-3.43,8.12-7.84,8.12
			C242.55,52.16,238.98,48.72,238.98,44.03z M240.38,17.43V0h13.02v17.43l-1.05,15.47h-10.99L240.38,17.43z"/>
	</g>
</g>
<g>
</g>
<g>
</g>
<g>
</g>
<g>
</g>
<g>
</g>
<g>
</g>
</svg>
