<?xml version="1.0" encoding="utf-8"?>
<!-- Generator: Adobe Illustrator 25.2.0, SVG Export Plug-In . SVG Version: 6.00 Build 0)  -->
<svg version="1.1" id="Calque_1" xmlns="http://www.w3.org/2000/svg" xmlns:xlink="http://www.w3.org/1999/xlink" x="0px" y="0px"
	 width="258.9px" height="52.2px" viewBox="0 0 258.9 52.2" style="enable-background:new 0 0 258.9 52.2;" xml:space="preserve">
<style type="text/css">
	.st0{fill:#000000;}
</style>
<g>
	<g>
		<path class="st0" d="M40,50.7c-1.4,0.8-3.8,1.3-6.4,1.3c-5.4,0-8.6-2.7-11.3-7.8l-3.4-6.4h-1c-1.5,0-3.1-0.1-4.6-0.2V51H0V4.4
			h20.5c11.8,0,18.3,5.9,18.3,16.1c0,6.6-2.4,11.4-7.1,14.2l2.1,3.2c1.2,1.8,2.3,2.2,3.6,2.2c0.7,0,1.5-0.1,1.9-0.3L40,50.7z
			 M13.3,26.7c1.4,0.1,2.9,0.2,4.3,0.2c5.2,0,8-1.7,8-5.3c0.1-3.4-2.3-5.2-6.5-5.2h-5.8V26.7z"/>
		<path class="st0" d="M78.3,47c-3.8,3-8.4,5.1-16.9,5.1c-10.8,0-18.1-5.7-18.1-17.4c0-11.4,7.1-19.6,19.7-19.6
			c9.5,0,14.3,4.7,14.4,10.9c0.2,7.8-6.3,12.1-19.8,12.6c1.2,2.1,3.2,2.5,6.2,2.5c3.1,0,6.4-0.8,9.4-2.9L78.3,47z M56.6,30.9
			c5-0.2,8.5-0.8,8.5-3.5c0-1.5-1.3-2.2-3.1-2.2C59,25.2,57,27.1,56.6,30.9z"/>
		<path class="st0" d="M120.3,33.4c0,12.2-6.7,18.8-15.1,18.8c-4.5,0-8-1.5-10.3-4.9L94.6,51H82.9V0H96v19.2c2.3-2.7,5.5-4,9.3-4
			C114.2,15.2,120.3,21.7,120.3,33.4z M101.2,26.5c-2.5,0-4.3,1.3-5.2,3.6v7c0.6,2.6,2.7,3.8,5.4,3.8c3.4,0,5.6-2.4,5.7-7.2
			S104.7,26.5,101.2,26.5z"/>
		<path class="st0" d="M123.8,33.9c0-11,7.6-18.7,19.4-18.7S162,22,162,33.5c0,11-7.6,18.7-19.3,18.7S123.8,45.4,123.8,33.9z
			 M148.9,33.7c0-4.5-2.2-7.2-5.9-7.2c-3.9,0-6,2.7-6,7.2c0,4.6,2.1,7.2,6,7.2C146.7,40.9,148.9,38.3,148.9,33.7z"/>
		<path class="st0" d="M165.1,33.9c0-11,7.6-18.7,19.4-18.7s18.9,6.8,18.9,18.3c0,11-7.6,18.7-19.3,18.7
			C172.3,52.2,165.1,45.4,165.1,33.9z M190.3,33.7c0-4.5-2.2-7.2-5.9-7.2c-3.9,0-6,2.7-6,7.2c0,4.6,2.1,7.2,6,7.2
			C188.1,40.9,190.3,38.3,190.3,33.7z"/>
		<path class="st0" d="M236.7,47.7c-2.8,2.9-7,4.4-11.7,4.4c-8.3,0-13.9-3.6-13.9-13V26.9h-5.7V16.6c5.4-0.5,7.2-1.9,7.8-9.3h11v9.1
			h10.1v10.5h-10.1v9.5c0,2.6,1.5,3.5,3.8,3.5c1.5,0,2.6-0.5,3.6-1.4L236.7,47.7z"/>
		<path class="st0" d="M243,44c0-4.7,3.6-8,8.1-8s7.8,3.4,7.8,8s-3.4,8.1-7.8,8.1C246.6,52.2,243,48.7,243,44z M244.4,17.4V0h13
			v17.4l-1.1,15.5h-11L244.4,17.4z"/>
	</g>
</g>
</svg>
