<?xml version="1.0" encoding="utf-8"?>
<!-- Generator: Adobe Illustrator 25.2.1, SVG Export Plug-In . SVG Version: 6.00 Build 0)  -->
<svg version="1.1" id="Calque_1" xmlns="http://www.w3.org/2000/svg" xmlns:xlink="http://www.w3.org/1999/xlink" x="0px" y="0px"
	 width="438.5px" height="387px" viewBox="0 0 438.5 387" style="enable-background:new 0 0 438.5 387;" xml:space="preserve">
<style type="text/css">
	.st0{fill:#F095B5;}
	.st1{fill:#E4C300;}
	.st2{fill:#7FC295;}
	.st3{fill:none;stroke:#7FC295;stroke-miterlimit:10;}
</style>
<g>
	<g>
		<path class="st0" d="M149.7,84.5c11.7,26.4-3,44.8-33.5,51.3c-21.1,4.5-38.1,2.1-47.7-2.6l2.5-14.4c8.8,3.9,20.1,6.8,39.3,2.7
			c18.2-3.9,31.5-14.5,23.2-33.2c-7.1-16.1-20.7-22-40.8-17.8c-9.4,2-15.2,4.9-20.1,8.2l-13.5-8.2l30.1-50.2L26.8,33.5l-7-15.7
			l85-18l6.5,14.6L84.5,59.1c2.5-1,4.9-1.9,7-2.3C118.2,51.1,139.2,60.8,149.7,84.5z"/>
		<path class="st0" d="M163.1,76.8c-14.2-32-2.3-61,35-68.9c39.2-8.3,69.4,8.1,84.7,42.8c14.3,32.2,3.1,61-35.1,69.2
			C208.9,128.1,178.4,111.3,163.1,76.8z M263.8,55.2c-10.5-23.8-32-36.7-58.5-31.1c-26.1,5.5-33,24.7-22.5,48.3
			c10.5,23.8,31.1,36.5,57.6,30.8C266.2,97.8,274.2,78.8,263.8,55.2z"/>
		<path class="st0" d="M303.1,72.4l0.8-2.7c2.5,1,4.6,1.1,7.3,0.5c3.1-0.7,4.2-1.9,3.4-3.8c-0.8-1.8-2.5-2.2-6.7-2
			c-5.4,0.2-7.9-1-9.2-4c-1.5-3.4,0.5-6.2,5.3-7.2c3-0.6,6-0.4,8.3,0.5l-0.7,2.7c-2.2-0.8-4.2-0.9-6.5-0.4c-2.8,0.6-3.9,1.9-3.2,3.5
			c0.7,1.6,2.2,2,6.8,1.8c5-0.2,7.7,1,9.2,4.3c1.6,3.7-0.6,6.5-5.6,7.6C308.7,73.7,305.6,73.5,303.1,72.4z"/>
		<path class="st0" d="M337.1,57.6l-14.5,3.1c2.3,4.6,5.9,5.7,9.6,4.9c3.1-0.6,4.1-1.7,5-3.2l2.8,1.9c-0.9,1.7-3.1,3.5-7,4.3
			c-6.1,1.3-11.4-1.1-14.2-7.5c-2.7-6-0.7-11,5.3-12.3c5.2-1.1,9.7,1.1,12.3,6.9C336.7,56.6,336.9,57.1,337.1,57.6z M321.5,58
			l11.1-2.3c-1.8-3.6-4.4-4.7-7.5-4C322,52.3,320.6,54.4,321.5,58z"/>
		<path class="st0" d="M360.2,51.4c3,6.8,0.3,11.4-5.4,12.6c-2.4,0.5-4.4,0.4-6.3-0.2l3.8,8.6l-3.5,0.7l-11.7-26.5l3.2-0.7l1.4,2.7
			c0.4-2.2,2.1-4,5.6-4.7C352.4,42.8,357.6,45.6,360.2,51.4z M356.9,52.7c-2.1-4.8-5.6-6.4-9.2-5.7c-2.9,0.6-4.6,2.6-4.2,5.5
			l3.5,7.9c2,0.9,4.1,1.2,6.3,0.8C357.5,60.3,358.9,57.3,356.9,52.7z"/>
		<path class="st0" d="M382.2,56.1c-0.6,1.2-1.9,2.5-4.8,3.1c-4.7,1-7.7-0.6-9.6-4.8l-4.5-10.2l-4.5,1l-1.2-2.8l4.6-1l-1.9-5.4
			l2.9-0.6l2.3,5.3l7.6-1.6l1.2,2.8l-7.6,1.6l4.4,9.8c1.1,2.5,3,3.5,5.4,2.9c1.8-0.4,2.6-1.3,2.9-2L382.2,56.1z"/>
	</g>
	<g>
		<path class="st0" d="M91.5,148.9c-10.2,0-19.4-1.7-26.2-5.1l-0.6-0.3l2.8-16.3l1.1,0.5c8.3,3.6,19.3,6.8,38.8,2.7
			c11.6-2.5,19.9-7.4,23.2-14c2.6-5.1,2.4-11.1-0.6-17.9c-7-15.8-20-21.4-39.7-17.2c-10.1,2.1-15.7,5.3-19.8,8L70,89.6l-14.7-9
			l29.5-49.2l-61.1,13L16,27l86.8-18.4l7,15.7l-26,42.8c1.6-0.6,3.2-1.1,4.7-1.4c27.5-5.8,48.6,4.2,59.2,28.3l0,0
			c5.1,11.6,5.5,21.9,1,30.7c-5.4,10.6-17.5,18.1-35.1,21.8C106,148.1,98.5,148.9,91.5,148.9z M66.7,142.5c11.2,5.2,28.5,6,46.5,2.2
			c17-3.6,28.7-10.8,33.8-20.9c4.2-8.3,3.9-18.1-1-29.1l0,0c-10.3-23.2-30.6-32.9-57.2-27.3c-1.8,0.4-4,1.2-6.2,2l-3.1,1.1
			l27.9-46.4l-6-13.5l-83,17.7l6.2,14l63.7-13.5L57.6,80l12.2,7.4c4.2-2.8,10-5.8,20-8c20.4-4.3,34.5,1.8,41.8,18.3
			c3.2,7.3,3.5,13.9,0.6,19.5c-3.6,7.1-12.3,12.4-24.5,15c-19.2,4.1-30.4,1.2-38.8-2.3L66.7,142.5z"/>
		<path class="st0" d="M225.9,132.6c-29.6,0-53.3-16-66.4-45.7l0,0c-7.3-16.5-7.8-32.6-1.3-45.2c6.4-12.6,19.2-21.2,37-25
			c38.7-8.2,69.9,7.6,85.8,43.3c7.4,16.8,8,32.9,1.6,45.5c-6.4,12.5-19.3,21.1-37.4,25C238.5,131.9,232.1,132.6,225.9,132.6z
			 M161.1,86.2c15.5,35,46,50.5,83.6,42.6c17.5-3.7,30-12,36.1-24c6.2-12,5.6-27.6-1.6-43.9c-15.5-34.9-46-50.3-83.7-42.3
			c-17.2,3.6-29.6,12-35.8,24C153.6,54.7,154.1,70.2,161.1,86.2L161.1,86.2z M225.3,115.3c-20.3,0-36.8-11.5-46.2-32.7
			c-5.7-12.8-6.3-24.2-1.8-33.1c4.2-8.2,12.8-13.9,24.9-16.5c26-5.5,48.3,6.3,59.5,31.6c5.5,12.4,6,23.5,1.5,32.3
			c-4.3,8.5-13.2,14.3-25.6,16.9C233.5,114.8,229.3,115.3,225.3,115.3z M214.6,33.5c-3.8,0-7.8,0.4-11.9,1.3
			c-11.6,2.5-19.8,7.8-23.7,15.5c-4.3,8.3-3.6,19.2,1.8,31.5c10.9,24.6,31.5,35.6,56.6,30.3c11.9-2.5,20.3-8,24.3-16
			c4.2-8.3,3.7-18.9-1.5-30.8C251.1,44.8,234.5,33.5,214.6,33.5z"/>
	</g>
	<g>
		<path class="st1" d="M153.1,200.3c-14.2-32-2.3-61,35-68.9c39.2-8.3,69.4,8.1,84.7,42.8c14.3,32.2,3.1,61-35.1,69.2
			C198.9,251.6,168.3,234.8,153.1,200.3z M253.7,178.7c-10.5-23.8-31.9-36.7-58.5-31.1c-26.1,5.5-33,24.7-22.5,48.3
			c10.5,23.8,31.1,36.5,57.6,30.8C256.1,221.2,264.2,202.3,253.7,178.7z"/>
		<path class="st1" d="M320.2,142.1l42,94.9l-17.3,3.7l-34.1-77.1L294.1,179l-13-11.8l24.7-22L320.2,142.1z"/>
		<path class="st1" d="M346.8,161.3c-2.7-6-0.5-11,5.7-12.3c5.9-1.3,11.7,1.4,14.3,7.5c2.7,6.1,0.5,11-5.8,12.3
			C355.2,170,349.6,167.4,346.8,161.3z M363.4,157.5c-2-4.5-5.6-6.6-9.8-5.8c-3.9,0.8-5.3,3.9-3.3,8.4s5.7,6.6,9.7,5.7
			C364.1,165,365.4,162.1,363.4,157.5z"/>
		<path class="st1" d="M369.8,156.3c-2.7-6.2-0.1-11,5.7-12.2c3.1-0.7,5.6-0.3,7.9,0.7l-0.8,2.7c-1.9-0.8-3.5-1.1-5.9-0.6
			c-4,0.9-5.3,4-3.5,8.4c2,4.6,5.7,6.5,10,5.6c2.3-0.5,3.6-1.5,4.3-2.8l2.8,1.9c-0.8,1.4-2.4,3.1-6.3,4
			C378.1,165.1,372.7,162.7,369.8,156.3z"/>
		<path class="st1" d="M408.4,156.6c-0.6,1.2-1.9,2.5-4.8,3.1c-4.7,1-7.7-0.6-9.6-4.8l-4.5-10.2l-4.5,1l-1.2-2.8l4.6-1l-1.9-5.4
			l2.9-0.6l2.3,5.3l7.6-1.6l1.2,2.8l-7.6,1.6l4.4,9.8c1.1,2.5,3,3.5,5.4,2.9c1.8-0.4,2.6-1.3,2.9-2L408.4,156.6z"/>
	</g>
	<g>
		<path class="st1" d="M216.3,255.6c-29.6,0-53.3-16-66.4-45.7c-7.3-16.5-7.8-32.6-1.3-45.2c6.4-12.6,19.2-21.2,37-25
			c38.7-8.2,69.9,7.6,85.8,43.3c7.4,16.8,8,32.9,1.6,45.5c-6.4,12.5-19.3,21.1-37.4,25C228.9,254.9,222.5,255.6,216.3,255.6z
			 M204.9,139.5c-6.1,0-12.4,0.7-18.9,2.1c-17.2,3.7-29.6,12-35.8,24c-6.2,12.1-5.7,27.6,1.4,43.6c15.5,35,46,50.5,83.6,42.6
			c17.5-3.7,30-12,36.1-24c6.2-12,5.6-27.6-1.6-43.9C256.9,155,233.8,139.5,204.9,139.5z M215.7,238.3c-20.3,0-36.8-11.5-46.2-32.7
			c-5.7-12.8-6.3-24.2-1.8-33.1c4.2-8.2,12.8-13.9,24.9-16.5c26-5.5,48.3,6.3,59.5,31.6l0,0c5.5,12.4,6,23.5,1.5,32.3
			c-4.3,8.5-13.2,14.3-25.6,16.9C223.9,237.8,219.7,238.3,215.7,238.3z M205,156.5c-3.8,0-7.8,0.4-11.9,1.3
			c-11.6,2.5-19.8,7.8-23.7,15.5c-4.3,8.3-3.6,19.2,1.8,31.5c10.9,24.6,31.5,35.6,56.6,30.3c11.9-2.5,20.3-8,24.3-16
			c4.2-8.3,3.7-18.9-1.5-30.8C241.5,167.8,224.9,156.5,205,156.5z"/>
		<path class="st1" d="M342.1,251l-33.9-76.6l-16.4,15.1l-14.3-13l25.7-22.9l15.4-3.3l42.8,96.6L342.1,251z M308.8,171.3l34.4,77.6
			l15.5-3.3l-41.3-93.2l-13.5,2.9l-23.8,21.2l11.6,10.5L308.8,171.3z"/>
	</g>
	<g>
		<path class="st0" d="M0.1,121.3c-0.4-0.9,0.1-1.7,0.9-1.9c0.9-0.2,1.9,0.3,2.3,1.2s-0.1,1.6-1,1.8C1.5,122.6,0.5,122.1,0.1,121.3z
			 M6.2,140.6c1.8-0.4,2.4-1.4,1.6-3.2L2.3,125l2.2-0.5l5.5,12.4c1.3,2.9,0.4,4.8-2.7,5.5L6.2,140.6z"/>
		<path class="st0" d="M21.8,127.8l-9.2,2c1.5,2.9,3.8,3.6,6.1,3.1c1.9-0.4,2.6-1.1,3.2-2l1.8,1.2c-0.6,1.1-2,2.2-4.4,2.7
			c-3.9,0.8-7.2-0.7-9-4.8c-1.7-3.8-0.5-7,3.4-7.8c3.3-0.7,6.2,0.7,7.8,4.4C21.6,127.2,21.7,127.5,21.8,127.8z M11.9,128.1l7-1.5
			c-1.2-2.3-2.8-3-4.7-2.6C12.2,124.5,11.3,125.8,11.9,128.1z"/>
		<path class="st0" d="M32.9,118.5l5.3,12l-2,0.4l-0.9-1.6c-0.5,1.2-1.5,2.5-3.7,2.9c-3.1,0.7-5.3-0.5-6.7-3.5l-3.4-7.8l2.2-0.5
			l3.3,7.4c0.9,2,2.3,2.8,4.4,2.4c1.7-0.4,2.6-1.3,3.1-2.3l-3.9-8.9L32.9,118.5z"/>
		<path class="st0" d="M51.3,127.7c-0.3-0.4-0.6-0.8-1-1.8c-0.3,1.4-1.3,2.6-3.5,3.1c-3.5,0.7-6.8-1.2-8.4-4.8c-1.8-4-0.3-7.1,3.6-8
			c1.5-0.3,2.8-0.2,4,0.2l-2.8-6.4l2.2-0.5l7,15.7c0.3,0.7,0.8,1.6,1,1.9L51.3,127.7z M49.1,123.6l-2.2-5.1
			c-1.3-0.6-2.6-0.8-4.2-0.4c-2.5,0.5-3.4,2.5-2.1,5.4s3.5,4.1,6,3.5C48.4,126.6,49.3,125.2,49.1,123.6z"/>
		<path class="st0" d="M49.6,110.8c-0.4-0.9,0.1-1.7,0.9-1.9c0.9-0.2,1.9,0.3,2.3,1.2c0.4,0.8-0.1,1.6-1,1.8
			C51,112.1,50,111.6,49.6,110.8z M51.9,114.5l2.2-0.5l5.3,12l-2.2,0.5L51.9,114.5z"/>
	</g>
	<g>
		<path class="st1" d="M43.8,215.1l-0.2,13.2l-1.9,0.4l-10.6-10.9l2.5-0.5l6.1,6.4l2.2,2.4l-0.2-2.8l-0.1-7.7L43.8,215.1z"/>
		<path class="st1" d="M58.8,218.9l-9.2,2c1.5,2.9,3.8,3.6,6.1,3.1c1.9-0.4,2.6-1.1,3.2-2l1.8,1.2c-0.6,1.1-2,2.2-4.4,2.7
			c-3.9,0.8-7.2-0.7-9-4.8c-1.7-3.8-0.5-7,3.4-7.8c3.3-0.7,6.2,0.7,7.8,4.4C58.5,218.3,58.7,218.6,58.8,218.9z M48.9,219.2l7-1.5
			c-1.2-2.3-2.8-3-4.8-2.6C49.2,215.6,48.3,216.9,48.9,219.2z"/>
		<path class="st1" d="M72.2,214l3.3,7.5l-2.2,0.5l-3.1-7.1c-1-2.3-2.5-3.1-4.5-2.7c-1.8,0.4-2.7,1.5-3.2,2.5l3.9,8.8l-2.2,0.5
			l-5.3-12l2-0.4l0.8,1.5c0.6-1.2,1.7-2.4,3.9-2.9C68.2,209.6,70.7,210.6,72.2,214z"/>
		<path class="st1" d="M88.5,218.8c-0.3-0.4-0.6-0.8-1-1.8c-0.3,1.4-1.3,2.6-3.5,3.1c-3.5,0.7-6.8-1.2-8.4-4.8c-1.8-4-0.3-7.1,3.6-8
			c1.5-0.3,2.8-0.2,4,0.2l-2.8-6.4l2.2-0.5l7,15.7c0.3,0.7,0.8,1.6,1,1.9L88.5,218.8z M86.2,214.6l-2.2-5.1
			c-1.3-0.6-2.6-0.8-4.2-0.4c-2.5,0.5-3.4,2.5-2.1,5.4c1.3,2.9,3.5,4.1,6,3.5C85.5,217.7,86.4,216.3,86.2,214.6z"/>
		<path class="st1" d="M96.5,203.8l0.5,2.1c-0.5,0-0.9,0-1.5,0.1c-1.6,0.3-2.4,1.5-2.7,2.7l3.7,8.3l-2.2,0.5l-5.3-12l2-0.4l1,1.8
			c0.4-1.4,1.2-2.6,3-3C95.5,203.9,95.9,203.8,96.5,203.8z"/>
		<path class="st1" d="M111.2,207.8l-9.2,2c1.5,2.9,3.8,3.6,6.1,3.1c1.9-0.4,2.6-1.1,3.2-2l1.8,1.2c-0.6,1.1-2,2.2-4.4,2.7
			c-3.9,0.8-7.2-0.7-9-4.8c-1.7-3.8-0.5-7,3.4-7.8c3.3-0.7,6.2,0.7,7.8,4.4C110.9,207.2,111.1,207.5,111.2,207.8z M101.3,208.1
			l7-1.5c-1.2-2.3-2.8-3-4.8-2.6C101.6,204.5,100.7,205.8,101.3,208.1z"/>
		<path class="st1" d="M125.8,210.9c-0.3-0.4-0.6-0.8-1-1.8c-0.3,1.4-1.3,2.6-3.5,3.1c-3.5,0.7-6.8-1.2-8.4-4.8
			c-1.8-4-0.3-7.1,3.6-8c1.5-0.3,2.8-0.2,4,0.2l-2.8-6.4l2.2-0.5l7,15.7c0.3,0.7,0.8,1.6,1,1.9L125.8,210.9z M123.6,206.7l-2.2-5.1
			c-1.3-0.6-2.6-0.8-4.2-0.4c-2.5,0.5-3.4,2.5-2.1,5.4c1.3,2.9,3.5,4.1,6,3.5C122.9,209.8,123.8,208.4,123.6,206.7z"/>
		<path class="st1" d="M124.2,193.9c-0.4-0.9,0.1-1.7,0.9-1.9c0.9-0.2,1.9,0.3,2.3,1.2c0.4,0.8-0.1,1.6-1,1.8
			C125.6,195.2,124.6,194.7,124.2,193.9z M126.4,197.6l2.2-0.5l5.3,12l-2.2,0.5L126.4,197.6z"/>
	</g>
</g>
<g>
	<path class="st2" d="M177.5,387l-46.8-2.4c-4.1-0.2-7.2-3.2-7-6.7l2.7-40.1c0.2-3.5,3.8-6.2,7.9-6l46.8,2.4c4.1,0.2,7.2,3.2,7,6.7
		l-2.7,40.1C185.2,384.5,181.6,387.2,177.5,387z"/>
	<path class="st2" d="M427.9,346.5l-46.8-2.4c-4.1-0.2-7.2-3.2-7-6.7l2.7-40.1c0.2-3.5,3.8-6.2,7.9-6l46.8,2.4
		c4.1,0.2,7.2,3.2,7,6.7l-2.7,40.1C435.5,344,431.9,346.7,427.9,346.5z"/>
	<line class="st3" x1="184.1" y1="335.5" x2="383.4" y2="292.1"/>
	<line class="st3" x1="178.8" y1="386" x2="380.9" y2="343.2"/>
	<polyline class="st2" points="129.1,333.1 159.1,318.8 240.9,322.9 	"/>
	<polyline class="st2" points="433.2,345 405,359.4 328.5,355.5 	"/>
</g>
<g>
	<path class="st2" d="M255.5,352.1c1,2.4-1.1,4-5.3,4.9c-3.3,0.7-5.7,0.4-6.5-1.5c-0.4-0.9-0.1-1.9,0.9-2.7c-1-0.2-1.8-0.7-2.1-1.5
		c-0.4-0.9-0.1-1.7,0.8-2.6c-1-0.4-1.7-1.2-2.1-2.2c-0.9-2.3,0.5-4.2,3.4-4.8c1.1-0.2,2.2-0.3,3.1-0.1c0.3-0.5,0.4-1.4,0-2.5
		l2.3-0.5c0.6,1.5,0,2.7-0.8,3.4c0.8,0.5,1.5,1.2,1.9,2.1c0.9,2.3-0.5,4.1-3.4,4.8c-1,0.2-1.9,0.3-2.8,0.1c-0.4,0.4-0.6,0.8-0.5,1.3
		c0.2,0.6,1,0.9,2.2,0.6l3.5-0.8C252.8,349.6,254.8,350.3,255.5,352.1z M243.2,346c0.6,1.4,1.9,1.9,3.7,1.5c1.8-0.4,2.5-1.4,2-2.9
		c-0.6-1.4-2-1.9-3.7-1.5C243.4,343.5,242.7,344.6,243.2,346z M253.5,352.8c-0.4-1-1.3-1.3-3-0.9l-2.7,0.6c-2.2,0.5-2.5,1.5-2.2,2.4
		c0.5,1.2,2,1.3,4.2,0.8C252.7,355,254.1,354.1,253.5,352.8z"/>
	<path class="st2" d="M260,338.5l0.3,1.8c-0.5,0-0.9,0-1.4,0.2c-1.6,0.3-2.3,1.4-2.7,2.5l2.9,7.3l-2.2,0.5l-4.2-10.5l2-0.4l0.8,1.6
		c0.5-1.2,1.3-2.4,3-2.7C259.1,338.5,259.5,338.5,260,338.5z"/>
	<path class="st2" d="M273.1,347.2c-0.2-0.3-0.4-0.7-0.8-1.3c-0.5,1.2-1.6,2.1-3.5,2.5c-2.3,0.5-4.5-0.1-5.3-2.1
		c-0.9-2.1,0.7-3.7,4.3-4.5c1-0.2,1.8-0.3,2.5-0.4l-0.4-1c-0.7-1.7-2-2.1-3.9-1.7c-1.4,0.3-2.5,1-3.3,1.8l-1.5-1
		c0.9-1.1,2.3-2,4.5-2.5c3.3-0.7,5.3,0.3,6.4,2.9l2.1,5.2c0.2,0.5,0.6,1.3,0.8,1.6L273.1,347.2z M271.5,344.2l-0.6-1.4
		c-0.5,0-1.4,0.2-2.4,0.4c-2.1,0.5-3.2,1.3-2.7,2.5c0.4,1.1,1.6,1.4,2.9,1.1C269.9,346.6,271.2,345.8,271.5,344.2z"/>
	<path class="st2" d="M286.6,343.3c-0.4,0.7-1.3,1.4-3.1,1.8c-2.9,0.6-4.6-0.2-5.6-2.5l-2.3-5.7l-2.8,0.6l-0.6-1.6l2.8-0.6l-0.9-3
		l1.8-0.4l1.2,3l4.7-1l0.6,1.6l-4.7,1l2.2,5.5c0.6,1.4,1.6,1.9,3.1,1.6c1.1-0.2,1.6-0.8,1.9-1.2L286.6,343.3z"/>
	<path class="st2" d="M294.9,330.9l4.2,10.5l-1.9,0.4l-0.7-1.4c-0.6,1.1-1.6,2.2-3.7,2.7c-3,0.7-5-0.3-6.1-3l-2.7-6.8l2.2-0.5
		l2.6,6.5c0.7,1.7,2,2.4,4.1,2c1.6-0.4,2.5-1.3,3.1-2.2l-3.1-7.8L294.9,330.9z"/>
	<path class="st2" d="M296.7,326.8c-0.3-0.8,0.2-1.5,1-1.7c0.9-0.2,1.8,0.2,2.1,1c0.3,0.7-0.2,1.5-1.1,1.6
		C297.9,328,297,327.6,296.7,326.8z M298.6,330.1l2.2-0.5l4.2,10.5l-2.2,0.5L298.6,330.1z"/>
	<path class="st2" d="M317,336.6c-0.4,0.7-1.3,1.4-3.1,1.8c-2.9,0.6-4.6-0.2-5.6-2.5l-2.3-5.7l-2.8,0.6l-0.6-1.6l2.8-0.6l-0.9-3
		l1.8-0.4l1.2,3l4.7-1l0.6,1.6l-4.7,1l2.2,5.5c0.6,1.4,1.6,1.9,3.1,1.6c1.1-0.2,1.6-0.8,1.9-1.2L317,336.6z"/>
	<path class="st2" d="M320.2,325.8l-2.2-5.5l2.2-0.5l2.2,5.5l2.2,6.1l-1.7,0.4L320.2,325.8z M323.2,334.9c-0.3-0.9,0.2-1.6,1.1-1.8
		c0.9-0.2,1.9,0.2,2.3,1.1c0.3,0.8-0.2,1.6-1.1,1.8C324.5,336.1,323.5,335.7,323.2,334.9z"/>
</g>
</svg>
